<svg width="40" height="52" viewBox="0 0 40 52" fill="none" xmlns="http://www.w3.org/2000/svg">
<path d="M18.3979 9.8457H13.3345L12.1973 13H10.5537L15.1689 0.914062H16.5635L21.187 13H19.5518L18.3979 9.8457ZM13.8159 8.53418H17.9248L15.8662 2.88135L13.8159 8.53418ZM24.2417 13H22.7061V0.25H24.2417V13ZM28.3755 13H26.8398V0.25H28.3755V13ZM9.94385 21.4932H6.51611V31H5.11719V21.4932H1.69678V20.3359H9.94385V21.4932ZM10.2222 26.9644C10.2222 26.188 10.3735 25.4897 10.6763 24.8696C10.9839 24.2495 11.4087 23.771 11.9507 23.4341C12.4976 23.0972 13.1201 22.9287 13.8184 22.9287C14.8975 22.9287 15.769 23.3022 16.4331 24.0493C17.1021 24.7964 17.4365 25.79 17.4365 27.0303V27.1255C17.4365 27.897 17.2876 28.5903 16.9897 29.2056C16.6968 29.8159 16.2744 30.292 15.7227 30.6338C15.1758 30.9756 14.5459 31.1465 13.833 31.1465C12.7588 31.1465 11.8872 30.7729 11.2183 30.0259C10.5542 29.2788 10.2222 28.29 10.2222 27.0596V26.9644ZM11.5845 27.1255C11.5845 28.0044 11.7871 28.71 12.1924 29.2422C12.6025 29.7744 13.1494 30.0405 13.833 30.0405C14.5215 30.0405 15.0684 29.772 15.4736 29.2349C15.8789 28.6929 16.0815 27.936 16.0815 26.9644C16.0815 26.0952 15.874 25.3921 15.459 24.855C15.0488 24.313 14.502 24.042 13.8184 24.042C13.1494 24.042 12.6099 24.3081 12.1997 24.8403C11.7896 25.3726 11.5845 26.1343 11.5845 27.1255ZM30.144 21.4932H26.7163V31H25.3174V21.4932H21.897V20.3359H30.144V21.4932ZM34.7876 24.291C34.5825 24.2568 34.3604 24.2397 34.1211 24.2397C33.2324 24.2397 32.6294 24.6182 32.312 25.375V31H30.957V23.0752H32.2754L32.2974 23.9907C32.7417 23.2827 33.3716 22.9287 34.187 22.9287C34.4507 22.9287 34.6509 22.9629 34.7876 23.0312V24.291ZM37.5122 31H36.1572V23.0752H37.5122V31ZM36.0474 20.9731C36.0474 20.7534 36.1133 20.5679 36.2451 20.4165C36.3818 20.2651 36.582 20.1895 36.8457 20.1895C37.1094 20.1895 37.3096 20.2651 37.4463 20.4165C37.583 20.5679 37.6514 20.7534 37.6514 20.9731C37.6514 21.1929 37.583 21.376 37.4463 21.5225C37.3096 21.6689 37.1094 21.7422 36.8457 21.7422C36.582 21.7422 36.3818 21.6689 36.2451 21.5225C36.1133 21.376 36.0474 21.1929 36.0474 20.9731ZM5.22461 45.6128C3.85775 45.2199 2.86165 44.7384 2.23633 44.1685C1.61654 43.5929 1.30664 42.8846 1.30664 42.0435C1.30664 41.0916 1.68571 40.3058 2.44385 39.686C3.20752 39.0607 4.19808 38.748 5.41553 38.748C6.24561 38.748 6.98438 38.9085 7.63184 39.2295C8.28483 39.5505 8.78841 39.9932 9.14258 40.5576C9.50228 41.1221 9.68213 41.7391 9.68213 42.4087H8.08008C8.08008 41.6782 7.84766 41.1055 7.38281 40.6904C6.91797 40.2699 6.26221 40.0596 5.41553 40.0596C4.62972 40.0596 4.01546 40.2339 3.57275 40.5825C3.13558 40.9256 2.91699 41.4043 2.91699 42.0186C2.91699 42.5111 3.12451 42.9289 3.53955 43.272C3.96012 43.6095 4.67122 43.9194 5.67285 44.2017C6.68001 44.4839 7.46582 44.7965 8.03027 45.1396C8.60026 45.4772 9.02083 45.8729 9.29199 46.3267C9.56868 46.7804 9.70703 47.3145 9.70703 47.9287C9.70703 48.9082 9.3252 49.694 8.56152 50.2861C7.79785 50.8727 6.77686 51.166 5.49854 51.166C4.66846 51.166 3.89372 51.0083 3.17432 50.6929C2.45492 50.3719 1.89876 49.9347 1.50586 49.3813C1.11849 48.828 0.924805 48.1999 0.924805 47.4971H2.52686C2.52686 48.2275 2.79525 48.8058 3.33203 49.2319C3.87435 49.6525 4.59652 49.8628 5.49854 49.8628C6.33968 49.8628 6.98438 49.6912 7.43262 49.3481C7.88086 49.005 8.10498 48.5374 8.10498 47.9453C8.10498 47.3532 7.89746 46.8966 7.48242 46.5757C7.06738 46.2492 6.31478 45.9282 5.22461 45.6128ZM13.6001 39.8438V42.0186H15.2769V43.2056H13.6001V48.7754C13.6001 49.1351 13.6748 49.4062 13.8242 49.5889C13.9736 49.766 14.2282 49.8545 14.5879 49.8545C14.765 49.8545 15.0085 49.8213 15.3184 49.7549V51C14.9144 51.1107 14.5215 51.166 14.1396 51.166C13.4535 51.166 12.936 50.9585 12.5874 50.5435C12.2388 50.1284 12.0645 49.5391 12.0645 48.7754V43.2056H10.4292V42.0186H12.0645V39.8438H13.6001ZM22.623 51C22.5345 50.8229 22.4626 50.5075 22.4072 50.0537C21.6934 50.7952 20.8411 51.166 19.8506 51.166C18.9652 51.166 18.2375 50.917 17.6675 50.4189C17.103 49.9154 16.8208 49.279 16.8208 48.5098C16.8208 47.5745 17.175 46.8496 17.8833 46.335C18.5972 45.8148 19.5988 45.5547 20.8882 45.5547H22.3823V44.8491C22.3823 44.3123 22.2218 43.8862 21.9009 43.5708C21.5799 43.2498 21.1068 43.0894 20.4814 43.0894C19.9336 43.0894 19.4743 43.2277 19.1035 43.5044C18.7327 43.7811 18.5474 44.1159 18.5474 44.5088H17.0034C17.0034 44.0605 17.1611 43.6289 17.4766 43.2139C17.7975 42.7933 18.2292 42.4613 18.7715 42.2178C19.3193 41.9743 19.9198 41.8525 20.5728 41.8525C21.6076 41.8525 22.4183 42.1126 23.0049 42.6328C23.5915 43.1475 23.8958 43.8586 23.918 44.7661V48.8999C23.918 49.7244 24.0231 50.3802 24.2334 50.8672V51H22.623ZM20.0747 49.8296C20.5562 49.8296 21.0127 49.7051 21.4443 49.4561C21.876 49.207 22.1886 48.8833 22.3823 48.4849V46.6421H21.1787C19.2972 46.6421 18.3564 47.1927 18.3564 48.2939C18.3564 48.7754 18.5169 49.1517 18.8379 49.4229C19.1589 49.694 19.5711 49.8296 20.0747 49.8296ZM28.4087 39.8438V42.0186H30.0854V43.2056H28.4087V48.7754C28.4087 49.1351 28.4834 49.4062 28.6328 49.5889C28.7822 49.766 29.0368 49.8545 29.3965 49.8545C29.5736 49.8545 29.8171 49.8213 30.127 49.7549V51C29.723 51.1107 29.3301 51.166 28.9482 51.166C28.262 51.166 27.7446 50.9585 27.396 50.5435C27.0474 50.1284 26.873 49.5391 26.873 48.7754V43.2056H25.2378V42.0186H26.873V39.8438H28.4087ZM35.6138 51.166C34.3963 51.166 33.4058 50.7676 32.6421 49.9707C31.8784 49.1683 31.4966 48.0975 31.4966 46.7583V46.4761C31.4966 45.5851 31.6654 44.791 32.0029 44.0938C32.346 43.391 32.8219 42.8431 33.4307 42.4502C34.0449 42.0518 34.709 41.8525 35.4229 41.8525C36.5905 41.8525 37.498 42.2371 38.1455 43.0063C38.793 43.7756 39.1167 44.8768 39.1167 46.3101V46.9492H33.0322C33.0544 47.8346 33.3117 48.5513 33.8042 49.0991C34.3022 49.6414 34.9331 49.9126 35.6968 49.9126C36.2391 49.9126 36.6984 49.8019 37.0747 49.5806C37.451 49.3592 37.7803 49.0659 38.0625 48.7007L39.0005 49.4312C38.2479 50.5877 37.119 51.166 35.6138 51.166ZM35.4229 43.1143C34.8031 43.1143 34.2829 43.3411 33.8623 43.7949C33.4417 44.2432 33.1816 44.874 33.082 45.6875H37.5811V45.5713C37.5368 44.791 37.3265 44.1878 36.9502 43.7617C36.5739 43.3301 36.0648 43.1143 35.4229 43.1143Z" fill="black"/>
</svg>
